<?xml version="1.0" standalone="no"?><!DOCTYPE svg PUBLIC "-//W3C//DTD SVG 1.1//EN" "http://www.w3.org/Graphics/SVG/1.1/DTD/svg11.dtd"><svg class="icon" width="200px" height="200.00px" viewBox="0 0 1024 1024" version="1.1" xmlns="http://www.w3.org/2000/svg"><path d="M128 128h768v768h-768z" fill="#56F3F2" opacity=".2" /><path d="M864 529.6h32v64h-32zM676.8 864h64v32h-64zM864 625.6h32v64h-32zM864 241.6h32v64h-32zM864 337.6h32v64h-32zM864 433.6h32v64h-32zM128 339.2h32v64h-32zM128 243.2h32v64h-32zM128 435.2h32v64h-32zM478.4 128h64v32h-64zM128 531.2h32v64h-32zM574.4 128h64v32h-64zM388.8 864h64v32h-64zM382.4 128h64v32h-64zM580.8 864h64v32h-64zM128 627.2h32v64h-32zM484.8 864h64v32h-64zM292.8 864h64v32h-64zM286.4 128h64v32h-64zM670.4 128h64v32h-64zM128 128v112h32v-80h94.4v-32H128zM240 864h-80v-140.8h-32V896h132.8v-32h-20.8zM896 128h-129.6v32h97.6v80h32v-112zM864 721.6V864h-91.2v32h123.2v-174.4h-32z" fill="#56F3F2" /></svg>