<?xml version="1.0" standalone="no"?><!DOCTYPE svg PUBLIC "-//W3C//DTD SVG 1.1//EN" "http://www.w3.org/Graphics/SVG/1.1/DTD/svg11.dtd"><svg class="icon" width="200px" height="124.42px" viewBox="0 0 1646 1024" version="1.1" xmlns="http://www.w3.org/2000/svg"><path fill="#000000" d="M1578.6752 0c0 9.5488 0.9728 18.0736 2.9184 25.6H1621.333333v39.790933c7.424 1.928533 15.837867 2.884267 25.224534 2.884267L1646.933333 955.707733c-9.5488 0-18.090667 1.134933-25.617066 3.328l0.017066 39.355734h-39.287466c-2.210133 7.552-3.345067 16.0768-3.370667 25.608533H69.3248c0-9.4976-1.083733-18.0224-3.259733-25.6H25.6v-39.739733c-7.424-1.937067-15.837867-2.9184-25.224533-2.952534L0 68.2752c9.480533 0.725333 18.013867 0.128 25.6-1.723733V25.6L65.937067 25.6c1.954133-7.688533 2.688-16.221867 2.2016-25.6h1510.536533z m-15.018667 998.391467H83.498667c0.708267 2.781867 1.28 5.640533 1.6896 8.593066h1476.864c0.418133-2.952533 0.938667-5.819733 1.5872-8.593066zM34.133333 961.467733V989.866667h28.859734a56.763733 56.763733 0 0 0-10.555734-16.0512c-4.923733-5.256533-11.0336-9.3696-18.304-12.3392zM1566.165333 34.133333H81.109333c-3.780267 11.502933-9.301333 21.137067-16.571733 28.928C53.8112 74.538667 44.782933 79.957333 34.133333 82.798933v860.091734c11.605333 4.1984 21.0944 10.897067 29.115734 19.456 7.3728 7.8592 13.508267 16.989867 17.544533 27.511466h1485.294933a73.608533 73.608533 0 0 1 16.827734-27.6992c7.620267-7.8848 17.527467-14.4128 28.842666-18.679466V80.9472a75.776 75.776 0 0 1-27.357866-17.4592A75.938133 75.938133 0 0 1 1566.165333 34.133333z m29.7984 939.6736a55.773867 55.773867 0 0 0-10.786133 16.042667l26.581333 0.008533v-27.2384a53.316267 53.316267 0 0 0-15.786666 11.178667zM1621.333333 83.84v856.669867a85.060267 85.060267 0 0 1 9.019734-1.706667V85.4784A88.251733 88.251733 0 0 1 1621.333333 83.84z m-1604.292266 1.646933v853.307734c2.9696 0.392533 5.819733 0.913067 8.558933 1.5616V84.522667c-2.705067 0.401067-5.546667 0.708267-8.558933 0.964266zM63.121067 34.133333H34.133333v29.6448a50.884267 50.884267 0 0 0 17.928534-12.373333A56.6016 56.6016 0 0 0 63.1296 34.133333z m1548.637866 0h-27.383466c2.747733 6.801067 6.485333 12.561067 11.221333 17.28a51.012267 51.012267 0 0 0 16.162133 10.752V34.116267z m-49.518933-17.066666H85.205333c-0.4864 2.935467-1.0496 5.7856-1.706666 8.533333h1480.2432a89.2928 89.2928 0 0 1-1.501867-8.533333z" /></svg>