<?xml version="1.0" standalone="no"?><!DOCTYPE svg PUBLIC "-//W3C//DTD SVG 1.1//EN" "http://www.w3.org/Graphics/SVG/1.1/DTD/svg11.dtd"><svg class="icon" width="200px" height="65.33px" viewBox="0 0 3135 1024" version="1.1" xmlns="http://www.w3.org/2000/svg"><path fill="#000000" d="M3105.872 846.784V192.69h-65.51v-38.12h65.503V61.678h-92.89v65.506h-38.122v-65.51H171.631v65.51h-38.12V61.677H40.62v92.895h65.5v38.119H40.613v654.096h65.509v38.12H40.62v92.9h92.892v-65.51h38.122v65.51h2803.222v-65.51h38.12v65.51h92.891v-92.9h-65.503v-38.12h65.508z m-65.508-757.718h38.114v38.117h-38.114V89.066z m-2972.357 0h38.114v38.117H68.007V89.066z m38.114 861.348H68.007v-38.12h38.114v38.12z m2841.345-65.508v65.508H199.021v-65.508h-65.51v-65.509H68V220.073h65.511V154.57h65.509V89.062h2748.445v65.51h65.51v65.504h65.509V819.4h-65.508v65.508h-65.51z m131.012 65.508h-38.114v-38.12h38.114v38.12z"  /></svg>