<?xml version="1.0" standalone="no"?><!DOCTYPE svg PUBLIC "-//W3C//DTD SVG 1.1//EN" "http://www.w3.org/Graphics/SVG/1.1/DTD/svg11.dtd"><svg class="icon" width="200px" height="200.00px" viewBox="0 0 1024 1024" version="1.1" xmlns="http://www.w3.org/2000/svg"><path fill="#000000" d="M372.937728 522.496c2.5088-4.2496 5.376-8.3456 8.704-12.1856l4.1984-4.864 7.168-9.5232a62.976 62.976 0 0 1 10.24-10.6496L512.150528 358.912l-105.984-62.208-181.4528 50.688a63.1808 63.1808 0 0 1-77.8752-43.1616 62.464 62.464 0 0 1 43.6224-77.1072l192.512-53.8112a100.0448 100.0448 0 0 1 77.5168 9.984l176.8448 103.7824c31.744 18.5856 42.1888 59.136 23.3984 90.5216-3.072 4.8128-3.072 4.8128-6.656 9.216l-139.9808 162.304 162.304 85.5552c32.5632 17.152 44.9024 57.1392 27.5968 89.3952l-1.1776 2.048-156.0576 266.6496a63.488 63.488 0 0 1-86.272 22.7328 62.1568 62.1568 0 0 1-22.9376-85.4016l125.0816-213.76-127.6416-67.2768L304.073728 822.272 92.105728 928.4608a63.3856 63.3856 0 0 1-84.7872-27.648 62.208 62.208 0 0 1 27.8528-83.968l185.6512-92.8768 152.1664-201.472z m429.7216-272.4864c-69.7344 0-126.2592-55.9616-126.2592-125.0304C676.400128 55.9616 732.924928 0 802.659328 0c69.6832 0 126.208 55.9616 126.208 124.9792 0 69.0688-56.5248 125.0304-126.208 125.0304z m-142.5408 209.92l48.4864-47.3088a66.1504 66.1504 0 0 0 19.8656-48.0256c6.3488 1.6384 12.4928 4.2496 18.2784 7.9872l56.832 36.352 109.6192-127.9488a63.5392 63.5392 0 0 1 88.9856-7.168c26.5728 22.272 29.8496 61.7472 7.2704 88.064l-135.2704 157.8496c-26.368 30.7712-71.68 37.376-105.984 15.4624l-90.0096-57.6512a62.6176 62.6176 0 0 1-18.0736-17.5616z"  /></svg>