<?xml version="1.0" standalone="no"?><!DOCTYPE svg PUBLIC "-//W3C//DTD SVG 1.1//EN" "http://www.w3.org/Graphics/SVG/1.1/DTD/svg11.dtd"><svg t="1590990010770" class="icon" viewBox="0 0 1024 1024" version="1.1" xmlns="http://www.w3.org/2000/svg" p-id="22732" id="mx_n_1590990010772" width="200" height="200" data-spm-anchor-id="a313x.7781069.0.i41" xmlns:xlink="http://www.w3.org/1999/xlink"><defs><style type="text/css"></style></defs><path d="M366.345496 440.761847a73.641181 73.641181 0 0 1 139.530658-46.510219L650.367903 833.463134a97.516427 97.516427 0 0 0-42.169266-1.550341l-139.530658-424.793338a34.107494 34.107494 0 1 0-64.804239 21.394701 19.84436 19.84436 0 0 1-37.518244 12.402725z m570.525359 344.330659l-237.202119 77.517032a96.276154 96.276154 0 0 1 19.379258 33.797426v1.395307l229.915518-75.811658a19.84436 19.84436 0 0 0-12.402725-37.518244z m-236.737017 118.135957A77.517033 77.517033 0 1 0 650.367903 1001.365026a77.517033 77.517033 0 0 0 49.455867-98.136563z m-62.013626 61.238456A38.758516 38.758516 0 1 1 663.235731 914.700984a38.758516 38.758516 0 0 1-24.650417 48.990765z m0 0M957.490386 731.450719l-80.617714-244.178652a9.92218 9.92218 0 0 0-12.402725-6.201363l-253.63573 83.563361a9.767146 9.767146 0 0 0-6.201363 12.402725L685.095534 821.680545a9.92218 9.92218 0 0 0 12.402725 6.201363L951.133989 744.163512a9.767146 9.767146 0 0 0 6.356397-12.402725zM768.038759 483.551249l-51.47131-156.119304a6.201363 6.201363 0 0 0-8.061771-4.030885l-44.184709 14.573202-23.25511 7.596669-26.200757 8.681908-23.25511 7.596669-43.87464 14.418168a6.201363 6.201363 0 0 0-4.030886 8.061771l51.47131 156.119304a6.201363 6.201363 0 0 0 8.061771 4.030886l162.010598-53.486753a6.356397 6.356397 0 0 0 4.030886-8.061771z m0 0" fill="#1296db" p-id="22733" data-spm-anchor-id="a313x.7781069.0.i42" class="selected"></path><path d="M193.172445 90.849962m-90.849962 0a90.849962 90.849962 0 1 0 181.699924 0 90.849962 90.849962 0 1 0-181.699924 0Z" fill="#a8ef89" p-id="22734" data-spm-anchor-id="a313x.7781069.0.i36" class=""></path><path d="M114.260106 1023.22483A53.176684 53.176684 0 0 1 61.238456 970.97835V644.476609a53.176684 53.176684 0 0 1 53.02165-53.021651 53.176684 53.176684 0 0 1 53.02165 53.021651v326.501741A53.176684 53.176684 0 0 1 114.260106 1023.22483z" fill="#a8ef89" p-id="22735" data-spm-anchor-id="a313x.7781069.0.i34" class=""></path><path d="M364.950189 1013.922786a53.176684 53.176684 0 0 1-69.300227-28.681302L169.762301 680.444512a53.176684 53.176684 0 0 1 28.681302-69.300227 53.176684 53.176684 0 0 1 69.300227 28.681302l126.507798 304.796972a53.176684 53.176684 0 0 1-29.301439 69.300227zM414.871158 446.653142a53.176684 53.176684 0 0 1-74.416351 9.457078l-200.61408-155.034066a53.176684 53.176684 0 0 1-9.457078-74.416351 53.176684 53.176684 0 0 1 74.416351-9.612112L405.41408 372.081756a53.176684 53.176684 0 0 1 9.457078 74.571386z" fill="#a8ef89" p-id="22736" data-spm-anchor-id="a313x.7781069.0.i35" class=""></path><path d="M259.061923 644.476609H68.525057A7.286601 7.286601 0 0 1 61.238456 637.190008V308.052687a103.562755 103.562755 0 0 1 103.562755-103.562755 101.547313 101.547313 0 0 1 101.547313 101.547313V637.190008a7.286601 7.286601 0 0 1-7.286601 7.286601z" fill="#a8ef89" p-id="22737" data-spm-anchor-id="a313x.7781069.0.i33" class=""></path></svg>