<?xml version="1.0" standalone="no"?><!DOCTYPE svg PUBLIC "-//W3C//DTD SVG 1.1//EN" "http://www.w3.org/Graphics/SVG/1.1/DTD/svg11.dtd"><svg t="1590992994611" class="icon" viewBox="0 0 1024 1024" version="1.1" xmlns="http://www.w3.org/2000/svg" p-id="43887" id="mx_n_1590992994614" xmlns:xlink="http://www.w3.org/1999/xlink" width="200" height="200"><defs><style type="text/css"></style></defs><path d="M415.629627 242.785535m-79.960123 0a78.139 78.139 0 1 0 159.920246 0 78.139 78.139 0 1 0-159.920246 0Z" fill="#50d556" p-id="43888"></path><path d="M365.173468 121.320113c0 0 52.106752 6.80294 106.656135 50.906413 64.126506 51.847855 61.057611 102.671381 61.057611 102.671381s-110.950951 55.384401-149.661601 101.716636c-80.176041 95.962585-40.388872 172.534542 5.41329 218.34796 33.932834 33.943067 75.211982 45.558615 75.211982 45.558615C443.407274 759.195985 357.004415 915.665643 357.004415 915.665643c-0.065492 0.37146-0.112564 0.725524-0.172939 1.090844-2.029216 5.034666-3.1569 10.530844-3.1569 16.293081 0 24.095791 19.534915 43.630706 43.630706 43.630706 14.666024 0 27.632337-7.245008 35.542494-18.343787 46.154179-48.307216 125.016295-304.795844 125.016295-304.795844l28.927843 2.168386c0 0 7.848759 83.671655 9.648754 140.454916 2.032286 64.126506 3.699252 117.776404 4.166903 132.878356-0.119727 1.319042-0.190335 2.656503-0.190335 4.007267 0 24.095791 19.534915 43.630706 43.630706 43.630706 23.506367 0 42.662659-18.59552 43.586704-41.875736 0.571005-6.417153 4.418636-65.097624-14.679327-330.36008-5.483898-76.17082-18.120706-290.056142-87.87949-408.341129C512.70557 73.391521 383.22459 47.596018 383.22459 47.596018s-26.346041-5.329379-35.897581 30.827099C338.157161 113.140827 365.173468 121.320113 365.173468 121.320113zM412.503427 442.3722c0 0 40.924061 67.534116 52.070936 131.61662C464.574363 573.98882 378.514311 525.537318 412.503427 442.3722z" fill="#50d556" p-id="43889"></path></svg>