<?xml version="1.0" standalone="no"?><!DOCTYPE svg PUBLIC "-//W3C//DTD SVG 1.1//EN" "http://www.w3.org/Graphics/SVG/1.1/DTD/svg11.dtd"><svg t="1590992281809" class="icon" viewBox="0 0 1039 1024" version="1.1" xmlns="http://www.w3.org/2000/svg" p-id="35970" xmlns:xlink="http://www.w3.org/1999/xlink" width="202.9296875" height="200"><defs><style type="text/css"></style></defs><path d="M684.167483 546.126511l113.379834 0 9.107225-27.219346c-1.125612 3.274508-1.637254 6.753672-1.637254 10.437494l0 72.550814L636.687119 601.895473c-0.409313-2.455881-0.61397-5.01409-0.61397-7.572299l0 0C636.073149 567.820126 657.664435 546.126511 684.167483 546.126511L684.167483 546.126511zM386.903568 571.29929l-20.670331 0c-12.791046 0-23.126212 10.437494-23.126212 23.126212l0 99.463176c16.884181-24.251824 43.796542-40.931348 74.69971-44.205856l15.656241-47.480364 20.670331 0 23.740182 0 79.304487-0.102328c-9.311882-11.972419-17.498151-20.772659-27.62866-29.675227l71.732187-79.09983 26.503048 24.558809c9.516538 8.80024 24.45648 8.18627 33.25672-1.22794l0 0c8.80024-9.516538 8.18627-24.45648-1.22794-33.25672l-78.895173-73.062456c-9.516538-8.80024-24.45648-8.18627-33.25672 1.22794l0 0c-8.80024 9.516538-8.18627 24.45648 1.22794 33.25672l30.289198 28.037973-73.267113 80.839412c-5.525732-4.093135-11.767763-8.595583-18.726092-13.712002l99.667833-315.580694c6.037374-19.135405 16.270211-36.4289 36.121915-36.4289l258.174478 0c19.851704 0 36.121915 16.474868 36.121915 36.4289l0 157.381033c-4.40012-6.958329-11.153792-12.58639-19.647047-15.349256l0 0c-19.544719-6.549016-40.931348 4.093135-47.480364 23.637854L806.859199 518.60018c4.502448-12.995703 16.884181-22.512241 31.41481-22.512241l55.25732 0 23.535525-70.094934L917.066853 496.087938l23.740182 0L940.807035 201.279904c0-22.0006-18.009793-40.010393-40.010393-40.010393L614.686519 161.269511c-22.0006 0-33.359049 19.033077-40.010393 40.010393L456.589188 571.401619c-0.61397 0-1.22794-0.102328-1.841911-0.102328l-11.563106 0L443.184171 411.974018l0-26.707705L443.184171 182.04217l-56.280604 0 0 203.224143L72.039173 385.266314l-56.48526 26.707705 371.349655 0L386.903568 571.29929 386.903568 571.29929zM423.741781 571.29929l-17.293495 0L406.448286 411.974018l17.293495 0L423.741781 571.29929 423.741781 571.29929zM946.230439 661.245928c51.061857 0 92.504847 41.44299 92.504847 92.504847 0 51.061857-41.44299 92.504847-92.504847 92.504847-51.061857 0-92.504847-41.44299-92.504847-92.504847C853.82792 702.688918 895.168582 661.245928 946.230439 661.245928L946.230439 661.245928zM946.230439 717.321875c-20.158689 0-36.4289 16.270211-36.4289 36.4289 0 20.056361 16.270211 36.4289 36.4289 36.4289 20.056361 0 36.4289-16.270211 36.4289-36.4289C982.659338 733.592086 966.389128 717.321875 946.230439 717.321875L946.230439 717.321875zM428.960528 661.245928c51.061857 0 92.504847 41.44299 92.504847 92.504847 0 51.061857-41.44299 92.504847-92.504847 92.504847-51.061857 0-92.504847-41.44299-92.504847-92.504847C336.455681 702.688918 377.898671 661.245928 428.960528 661.245928L428.960528 661.245928zM428.960528 717.321875c-20.056361 0-36.4289 16.270211-36.4289 36.4289 0 20.056361 16.270211 36.4289 36.4289 36.4289 20.158689 0 36.4289-16.270211 36.4289-36.4289C465.389427 733.592086 449.016888 717.321875 428.960528 717.321875L428.960528 717.321875zM842.674128 767.769761c-0.61397-4.604777-0.920955-9.311882-0.920955-14.121315 0-57.713201 46.866394-104.579594 104.579594-104.579594 32.02878 0 60.783052 14.4283 79.918457 37.145198 2.148896-4.40012 3.376836-9.311882 3.376836-14.530629L1029.62806 538.963526c0-18.009793-14.735285-32.847407-32.847407-32.847407l-146.124913 0c-18.009793 0-32.847407 14.735285-32.847407 32.847407l0 72.8578-373.907864 0.204657-12.484061 37.145198c56.587589 1.330269 102.123713 47.582692 102.123713 104.579594 0 4.809433-0.306985 9.41421-0.920955 14.121315L842.674128 767.769761 842.674128 767.769761zM179.176976 210.694114 190.330768 210.694114l0 34.280004-11.153792 0L179.176976 210.694114 179.176976 210.694114zM159.325272 210.694114l11.153792 0 0 34.280004-11.153792 0L159.325272 210.694114 159.325272 210.694114zM138.859598 210.694114l11.153792 0 0 34.280004-11.153792 0L138.859598 210.694114 138.859598 210.694114zM120.031178 210.694114l11.153792 0 0 34.280004-11.153792 0L120.031178 210.694114 120.031178 210.694114zM100.998101 210.694114l11.153792 0 0 34.280004-11.153792 0L100.998101 210.694114 100.998101 210.694114zM71.527531 111.537923l310.975917 0L382.503448 162.497452 71.527531 162.497452 71.527531 111.537923 71.527531 111.537923zM375.135805 172.525632l0 201.279904L78.792845 373.805536 78.792845 172.525632 375.135805 172.525632 375.135805 172.525632zM93.323474 204.759069l104.681923 0 0 46.047767L93.323474 250.806835 93.323474 204.759069z" fill="#054b74" p-id="35971"></path></svg>