<?xml version="1.0" standalone="no"?><!DOCTYPE svg PUBLIC "-//W3C//DTD SVG 1.1//EN" "http://www.w3.org/Graphics/SVG/1.1/DTD/svg11.dtd"><svg class="icon" width="200px" height="200.00px" viewBox="0 0 1024 1024" version="1.1" xmlns="http://www.w3.org/2000/svg"><path fill="#000000" d="M108.993939 553.373737v211.39394C108.993939 799.030303 122.828283 831.353535 148.040404 855.531313c25.212121 24.177778 58.569697 37.624242 94.125253 37.624243h219.539394l44.347474 42.666666H242.165657c-23.919192 0-47.191919-4.525253-69.171718-13.446464-21.074747-8.662626-40.080808-20.945455-56.371717-36.589899-16.290909-15.644444-29.090909-34.00404-38.012121-54.303031-9.309091-21.074747-13.963636-43.442424-13.963636-66.585858V510.707071l44.347474 42.666666z m0 0M108.993939 462.222222V254.319192c0-33.745455 13.834343-65.422222 39.046465-89.212121s58.569697-36.977778 94.125253-36.977778h219.668686l44.347475-42.020202H242.165657c-23.919192 0-47.191919 4.39596-69.171718 13.187879-21.20404 8.533333-40.080808 20.557576-56.371717 36.072727-16.290909 15.385859-29.090909 33.357576-38.012121 53.39798-9.309091 20.816162-13.963636 42.79596-13.963636 65.422222V504.242424l44.347474-42.020202z m0 0M915.006061 553.373737v211.39394c0 34.262626-13.834343 66.456566-39.046465 90.634343-25.212121 24.177778-58.569697 37.624242-94.254545 37.624243h-219.79798l-44.347475 42.666666h264.145455c23.919192 0 47.191919-4.525253 69.171717-13.446464 21.20404-8.662626 40.080808-20.945455 56.50101-36.589899 16.290909-15.644444 29.090909-34.00404 38.012121-54.303031 9.309091-21.074747 13.963636-43.442424 13.963636-66.585858V510.707071l-44.347474 42.666666z m0 0M915.006061 462.222222V254.319192c0-33.745455-13.834343-65.422222-39.046465-89.212121s-58.569697-36.977778-94.254545-36.977778h-219.79798l-44.347475-42.020202h264.145455c23.919192 0 47.191919 4.39596 69.171717 13.187879 21.20404 8.533333 40.080808 20.557576 56.50101 36.072727 16.290909 15.385859 29.090909 33.357576 38.012121 53.39798 9.309091 20.816162 13.963636 42.79596 13.963636 65.422222V504.242424l-44.347474-42.020202z m0 0" /></svg>