<?xml version="1.0" standalone="no"?><!DOCTYPE svg PUBLIC "-//W3C//DTD SVG 1.1//EN" "http://www.w3.org/Graphics/SVG/1.1/DTD/svg11.dtd"><svg class="icon" width="200px" height="200.00px" viewBox="0 0 1024 1024" version="1.1" xmlns="http://www.w3.org/2000/svg"><path d="M1000.32 649.6s-10.112-17.792-20.224-19.712l-4.352-362.496s-4.352-11.52-28.8-11.52H398.72s-20.224 1.408-20.224 21.632-1.408 352-1.408 352l-23.04-2.944 2.816-251.008s0-43.264-28.8-43.264H160.768s-111.104 51.968-116.864 147.2C38.016 574.464 40.96 630.016 40.96 630.016s-22.4-4.352-20.224 22.4c2.176 26.752 15.872 69.248 30.336 68.48 14.464-0.768 63.488 0 63.488 0s10.112-91.136 93.824-91.136c83.712 0 85.76 91.904 86.656 91.136 0.768-0.768 392.448 0 392.448 0s7.168-91.136 86.528-91.136c79.36 0 87.936 91.904 87.936 91.136 0-0.768 124.032 0 124.032 0 7.936-1.664 13.824-8.448 14.464-16.512 1.28-14.464-0.128-54.784-0.128-54.784zM299.264 473.6H108.8s69.248-99.584 76.416-99.584H279.04s20.224 1.408 20.224 12.928V473.6z m0 0" fill="#720000" /><path d="M145.152 722.176c0 15.744 6.272 30.72 17.28 41.856 11.136 11.136 26.112 17.28 41.856 17.28 32.64 0 59.136-26.496 59.136-59.136 0-32.64-26.496-59.136-59.136-59.136-32.64 0-59.136 26.496-59.136 59.136z m574.08 0c0 23.936 14.464 45.44 36.48 54.656 22.144 9.088 47.488 4.096 64.512-12.8 16.896-16.896 22.016-42.368 12.8-64.512-9.216-22.144-30.72-36.48-54.656-36.48-32.64 0-59.136 26.496-59.136 59.136z m0 0"  /><path d="M980.096 629.888l-4.352-362.496s-4.352-11.52-28.8-11.52H398.72s-20.224 1.408-20.224 21.632-1.408 352-1.408 352l-6.4-0.768v1.28h399.616c1.152 0 2.432-0.128 3.584-0.128 1.152 0 2.432 0 3.584 0.128h202.88c-0.128-0.128-0.128-0.128-0.256-0.128z" fill="#FF6B06" /></svg>