<?xml version="1.0" standalone="no"?><!DOCTYPE svg PUBLIC "-//W3C//DTD SVG 1.1//EN" "http://www.w3.org/Graphics/SVG/1.1/DTD/svg11.dtd"><svg class="icon" width="200px" height="200.00px" viewBox="0 0 1024 1024" version="1.1" xmlns="http://www.w3.org/2000/svg"><path fill="#000000" d="M960.2 568.6v184.2c0 10.6-2.6 20.5-7.8 29.6-5.2 9.1-12.3 16.1-21.4 20.8l-184.5 99.2c-6.8 4.2-14.7 6.2-23.5 6.2s-16.6-2-23.5-6.2L515 803.2c-1.1-0.6-2-1.2-2.8-1.8-0.5 0.6-1.5 1.2-2.9 1.8l-184.5 99.2c-6.8 4.2-14.7 6.2-23.5 6.2s-16.6-2-23.5-6.2L93 803.2c-9-4.7-16.2-11.6-21.4-20.8-5.2-9.1-7.8-19.1-7.8-29.6V568.6c0-11.2 2.9-21.6 8.9-31 5.9-9.4 13.7-16.5 23.2-21.3L274.7 434V257c0-11.2 2.9-21.6 8.9-31 5.9-9.4 13.7-16.5 23.2-21.3l184.5-85c6.3-2.9 13.2-4.4 20.6-4.4 7.5 0 14.3 1.5 20.6 4.4l184.5 85c9.6 4.7 17.4 11.8 23.2 21.3 5.9 9.4 8.9 19.8 8.9 31v177.1L928 516.3c9.8 4.7 17.7 11.8 23.5 21.3 5.7 9.5 8.7 19.9 8.7 31z m-659.1 68.3l166.4-76.6-166.4-76.6-166.4 76.5 166.4 76.7z m26.3 200.9l158.2-85v-139l-158.2 72.6v151.4zM512 339.4l181.7-83.7L512 172.1l-181.7 83.7L512 339.4z m26.3 167.8l158.2-73.1V316.3l-158.2 72.6v118.3z m184.5 129.7l166.4-76.6-166.4-76.6-166.4 76.6 166.4 76.6z m26.4 200.9l158.2-85v-139l-158.2 72.6v151.4z m0 0"  /></svg>