<?xml version="1.0" standalone="no"?><!DOCTYPE svg PUBLIC "-//W3C//DTD SVG 1.1//EN" "http://www.w3.org/Graphics/SVG/1.1/DTD/svg11.dtd"><svg class="icon" width="200px" height="200.00px" viewBox="0 0 1024 1024" version="1.1" xmlns="http://www.w3.org/2000/svg"><path fill="#000000" d="M986.382222 125.980444l-122.922666-48.213333a28.529778 28.529778 0 0 0-37.191112 16.910222L611.569778 696.120889a141.923556 141.923556 0 0 0-11.050667-0.554667c-29.056 0-56.092444 8.675556-78.819555 23.452445l98.403555-251.434667 23.452445 9.344c3.370667 1.365333 6.954667 2.033778 10.524444 2.033778a28.416 28.416 0 0 0 26.424889-17.934222l54.684444-137.386667a28.444444 28.444444 0 0 0-15.900444-36.935111L246.243556 98.176a28.387556 28.387556 0 0 0-36.949334 15.914667l-54.670222 137.415111a28.444444 28.444444 0 0 0 15.900444 36.935111l9.784889 3.896889-109.994666 291.968 425.344 156.344889c-6.840889 7.182222-12.928 15.075556-18.218667 23.523555l-260.309333-99.640889a28.544 28.544 0 0 0-21.703111 0.568889l-141.198223 62.677334a28.444444 28.444444 0 1 0 23.082667 52.010666l130.460444-57.912889 249.656889 95.559111a145.536 145.536 0 0 0-2.062222 23.381334c0 80.099556 65.109333 145.251556 145.137778 145.251555s145.137778-65.152 145.137778-145.251555c0-56.305778-32.256-105.130667-79.175111-129.208889L870.016 141.454222l95.601778 37.504a28.487111 28.487111 0 0 0 36.878222-16.099555 28.472889 28.472889 0 0 0-16.113778-36.878223z m-734.762666 35.569778l420.195555 167.480889-33.635555 84.522667-420.181334-167.438222 33.621334-84.565334zM481.891556 477.582222a28.444444 28.444444 0 0 1-36.721778 16.412445L277.333333 429.838222a28.444444 28.444444 0 1 1 20.309334-53.134222l167.836444 64.170667a28.430222 28.430222 0 0 1 16.412445 36.707555z m118.627555 451.584c-48.668444 0-88.248889-39.637333-88.248889-88.362666 0-48.711111 39.580444-88.348444 88.248889-88.348445s88.248889 39.637333 88.248889 88.348445c0 48.725333-39.580444 88.362667-88.248889 88.362666z"  /></svg>