<?xml version="1.0" standalone="no"?><!DOCTYPE svg PUBLIC "-//W3C//DTD SVG 1.1//EN" "http://www.w3.org/Graphics/SVG/1.1/DTD/svg11.dtd"><svg t="1590989659658" class="icon" viewBox="0 0 1024 1024" version="1.1" xmlns="http://www.w3.org/2000/svg" p-id="18795" xmlns:xlink="http://www.w3.org/1999/xlink" width="200" height="200"><defs><style type="text/css"></style></defs><path d="M68.628041 649.94958h152.20168v58.352941H68.628041v-58.352941zM26.947368 446.655462h193.882353v58.352941H26.947368v-58.352941z m81.210084-174.521008h110.521009v58.352941H108.157452v-58.352941z m785.7479 490.756302V272.134454H416.863335v527.596638a143.623529 143.623529 0 0 0-67.226891-36.840336V58.352941h182.857143V0H161.132242v58.352941h129.075631V761.008403a132.383193 132.383193 0 1 0 164.302521 128.268908 56.228571 56.228571 0 0 0-1.882353-17.478992h275.092437c0 5.915966-2.151261 11.831933-2.151261 17.478992a134.74958 134.74958 0 0 0 269.445378 0 135.771429 135.771429 0 0 0-101.109243-126.386555z m-574.117647 200.336135a73.94958 73.94958 0 1 1 75.294117-73.94958 75.966387 75.966387 0 0 1-75.294117 73.94958z m156.504201-632.739496h360.336135v137.680672h-360.336135v-137.680672z m275.092437 482.957983H476.291906V526.521008h360.336135v234.487395a130.312605 130.312605 0 0 0-85.243698 52.436975z m108.907563 149.781513a73.94958 73.94958 0 1 1 75.294118-73.94958 75.966387 75.966387 0 0 1-75.294118 73.94958z" p-id="18796" data-spm-anchor-id="a313x.7781069.0.i24" class="" fill="#1296db"></path></svg>