<?xml version="1.0" standalone="no"?><!DOCTYPE svg PUBLIC "-//W3C//DTD SVG 1.1//EN" "http://www.w3.org/Graphics/SVG/1.1/DTD/svg11.dtd"><svg class="icon" width="200px" height="200.00px" viewBox="0 0 1024 1024" version="1.1" xmlns="http://www.w3.org/2000/svg"><path fill="#000000" d="M964.380108 111.71579h8.726281v57.20562h-8.726281zM964.321933 91.655039h8.726281v11.441124h-8.726281zM964.321933 177.453774h8.726281v11.441124h-8.726281z"  /><path fill="#000000" d="M964.380108 217.904935h8.726281v57.205621h-8.726281zM964.321933 197.834489h8.726281v11.441124h-8.726281zM964.321933 283.642919h8.726281v11.441124h-8.726281z"  /><path fill="#000000" d="M964.380108 324.09408h8.726281v57.205621h-8.726281zM964.321933 304.023634h8.726281v11.441124h-8.726281zM964.321933 389.832065h8.726281v11.441124h-8.726281z"  /><path fill="#000000" d="M964.380108 430.283225h8.726281v57.205621h-8.726281zM964.321933 410.212779h8.726281v11.441124h-8.726281zM964.321933 496.02121h8.726281v11.441124h-8.726281z"  /><path fill="#000000" d="M964.380108 536.472371h8.726281v57.20562h-8.726281zM964.321933 516.401924h8.726281v11.441124h-8.726281zM964.321933 602.210355h8.726281v11.441124h-8.726281z"  /><path fill="#000000" d="M964.380108 642.65182h8.726281v57.20562h-8.726281zM964.321933 622.581373h8.726281v11.441124h-8.726281zM964.321933 708.389804h8.726281v11.441124h-8.726281z"  /><path fill="#000000" d="M964.380108 748.840965h8.726281v57.205621h-8.726281zM964.321933 728.770519h8.726281v11.441124h-8.726281zM964.321933 814.578949h8.726281v11.441124h-8.726281z"  /><path fill="#000000" d="M964.380108 855.03011h8.726281v57.205621h-8.726281zM964.321933 834.959664h8.726281v11.441124h-8.726281zM964.321933 920.768095h8.726281v11.441124h-8.726281z"  /><path fill="#000000" d="M845.663902 976.044237h55.63489v8.726282h-55.63489zM909.685718 975.976366h11.130856v8.726281H909.685718zM826.233383 975.976366h11.130856v8.726281h-11.130856z"  /><path fill="#000000" d="M742.393213 976.044237h55.63489v8.726282h-55.63489zM806.415029 975.976366h11.130856v8.726281h-11.130856zM722.962694 975.976366h11.130856v8.726281h-11.130856z"  /><path fill="#000000" d="M639.112828 976.044237h55.63489v8.726282h-55.63489zM703.14434 975.976366h11.130856v8.726281h-11.130856zM619.692005 975.976366h11.130856v8.726281h-11.130856z"  /><path fill="#000000" d="M535.842139 976.044237h55.63489v8.726282h-55.63489zM599.873651 975.976366h11.130856v8.726281h-11.130856zM516.421316 975.976366h11.130856v8.726281H516.421316z"  /><path fill="#000000" d="M432.57145 976.044237h55.63489v8.726282h-55.63489zM496.593266 975.976366h11.130856v8.726281h-11.130856zM413.140931 975.976366h11.130856v8.726281h-11.130856z"  /><path fill="#000000" d="M329.300761 976.044237h55.63489v8.726282h-55.63489zM393.322577 975.976366h11.130856v8.726281h-11.130856zM309.870242 975.976366h11.130856v8.726281h-11.130856z"  /><path fill="#000000" d="M226.020376 976.044237h55.63489v8.726282h-55.63489zM290.051888 975.976366h11.130856v8.726281h-11.130856zM206.599553 975.976366h11.130856v8.726281h-11.130856z"  /><path fill="#000000" d="M122.749688 976.044237h55.63489v8.726282h-55.63489zM186.781199 975.976366h11.130856v8.726281h-11.130856zM103.328864 975.976366h11.130856v8.726281H103.328864z"  /><path fill="#000000" d="M50.893611 855.07859h8.726281v57.20562h-8.726281zM50.951786 920.913533h8.726281v11.441124h-8.726281zM50.951786 835.105102h8.726281v11.441124h-8.726281z"  /><path fill="#000000" d="M50.893611 748.889444h8.726281v57.205621h-8.726281zM50.951786 814.724387h8.726281v11.441124h-8.726281zM50.951786 728.915957h8.726281v11.441124h-8.726281z"  /><path fill="#000000" d="M50.893611 642.700299h8.726281v57.205621h-8.726281zM50.951786 708.535242h8.726281v11.441124h-8.726281zM50.951786 622.726811h8.726281v11.441124h-8.726281z"  /><path fill="#000000" d="M50.893611 536.52085h8.726281v57.20562h-8.726281zM50.951786 602.355793h8.726281v11.441124h-8.726281zM50.951786 516.547362h8.726281v11.441124h-8.726281z"  /><path fill="#000000" d="M50.893611 430.331705h8.726281v57.20562h-8.726281zM50.951786 496.166648h8.726281v11.441124h-8.726281zM50.951786 410.358217h8.726281v11.441124h-8.726281z"  /><path fill="#000000" d="M50.893611 324.14256h8.726281v57.20562h-8.726281zM50.951786 389.977503h8.726281v11.441124h-8.726281zM50.951786 304.169072h8.726281v11.441124h-8.726281z"  /><path fill="#000000" d="M50.893611 217.953414h8.726281v57.205621h-8.726281zM50.951786 283.788357h8.726281v11.441124h-8.726281zM50.951786 197.979927h8.726281v11.441124h-8.726281z"  /><path fill="#000000" d="M50.893611 111.773965h8.726281v57.205621h-8.726281zM50.951786 177.599212h8.726281v11.441124h-8.726281zM50.951786 91.790781h8.726281v11.441124h-8.726281z"  /><path fill="#000000" d="M122.701208 39.239177h55.63489v8.726281h-55.63489zM103.183426 39.297353h11.130856v8.726281H103.183426zM186.635761 39.297353h11.130856v8.726281h-11.130856z"  /><path fill="#000000" d="M225.971897 39.239177h55.63489v8.726281h-55.63489zM206.454115 39.297353h11.130856v8.726281h-11.130856zM289.90645 39.297353h11.130856v8.726281h-11.130856z"  /><path fill="#000000" d="M329.252282 39.239177h55.63489v8.726281h-55.63489zM309.7345 39.297353h11.130856v8.726281h-11.130856zM393.186835 39.297353h11.130856v8.726281H393.186835z"  /><path fill="#000000" d="M432.522971 39.239177h55.63489v8.726281h-55.63489zM413.005189 39.297353h11.130856v8.726281h-11.130856zM496.457524 39.297353h11.130856v8.726281h-11.130856z"  /><path fill="#000000" d="M535.79366 39.239177h55.63489v8.726281h-55.63489zM516.275878 39.297353h11.130856v8.726281h-11.130856zM599.728213 39.297353H610.859069v8.726281h-11.130856z"  /><path fill="#000000" d="M639.064349 39.239177h55.63489v8.726281h-55.63489zM619.546567 39.297353h11.130856v8.726281h-11.130856zM702.998902 39.297353h11.130856v8.726281h-11.130856z"  /><path fill="#000000" d="M742.344734 39.239177h55.63489v8.726281h-55.63489zM722.826951 39.297353h11.130857v8.726281h-11.130857zM806.279286 39.297353h11.130857v8.726281h-11.130857z"  /><path fill="#000000" d="M845.615422 39.239177h55.63489v8.726281h-55.63489zM826.09764 39.297353h11.130857v8.726281h-11.130857zM909.549975 39.297353h11.130857v8.726281h-11.130857zM929.76586 976.112108v8.726282h43.379313V941.080938h-8.755369v35.03117h-34.623944zM59.552021 941.420293h-8.726282v43.389009h43.757452v-8.765065H59.552021v-34.623944zM94.23414 47.897587v-8.726281H50.845131v43.757452h8.765065V47.897587h34.623944zM964.447979 82.579707h8.726282V39.190698h-43.757452v8.765065h35.03117v34.623944z"  /></svg>