<?xml version="1.0" standalone="no"?><!DOCTYPE svg PUBLIC "-//W3C//DTD SVG 1.1//EN" "http://www.w3.org/Graphics/SVG/1.1/DTD/svg11.dtd"><svg class="icon" width="200px" height="200.00px" viewBox="0 0 1024 1024" version="1.1" xmlns="http://www.w3.org/2000/svg"><path d="M994.814 763.894H22.908C10.256 763.894 0 753.638 0 740.986v-76.618h1024v70.34c0 16.118-13.068 29.186-29.186 29.186z" fill="#399AEA" /><path d="M994.814 763.894H726.762V360.184h169.864c8.848 0 17.33 3.544 23.548 9.838l94.274 95.438A33.1 33.1 0 0 1 1024 488.722v245.988c0 16.116-13.068 29.184-29.186 29.184z" fill="#61AFF6" /><path d="M1014.448 465.46l-94.274-95.438a33.096 33.096 0 0 0-23.548-9.838h-114.204c8.848 0 17.33 3.544 23.548 9.838l94.274 95.438a33.1 33.1 0 0 1 9.552 23.262v275.174h85.018c16.12 0 29.186-13.068 29.186-29.186V488.718c0-8.706-3.432-17.064-9.552-23.258z" fill="#399AEA" /><path d="M783.534 560.3v-125.436a13.67 13.67 0 0 1 13.67-13.67h83.82c3.654 0 7.156 1.464 9.726 4.064l72.534 73.428a13.664 13.664 0 0 1 3.944 9.606v52.008a13.67 13.67 0 0 1-13.67 13.67h-156.354a13.67 13.67 0 0 1-13.67-13.67z" fill="#33D8DD" /><path d="M868.62 754.08m-89.714 0a89.714 89.714 0 1 0 179.428 0 89.714 89.714 0 1 0-179.428 0Z" fill="#3D6687" /><path d="M868.62 754.08m-34.662 0a34.662 34.662 0 1 0 69.324 0 34.662 34.662 0 1 0-69.324 0Z" fill="#CCCBCA" /><path d="M0 706.894h726.762V196.572a16.368 16.368 0 0 0-16.368-16.368H16.368A16.368 16.368 0 0 0 0 196.572v510.322z" fill="#FFC06C" /><path d="M710.396 180.204H612.56v526.688h114.204V196.572a16.37 16.37 0 0 0-16.368-16.368z" fill="#EDA558" /><path d="M179.42 754.08m-89.714 0a89.714 89.714 0 1 0 179.428 0 89.714 89.714 0 1 0-179.428 0Z" fill="#3D6687" /><path d="M179.42 754.08m-34.662 0a34.662 34.662 0 1 0 69.324 0 34.662 34.662 0 1 0-69.324 0Z" fill="#CCCBCA" /><path d="M432.468 368.404h-145.892a12.306 12.306 0 0 1-12.306-12.306V180.204h170.504v175.894c0 6.8-5.51 12.306-12.306 12.306z" fill="#FF4C4C" /><path d="M483.926 639.022h161.602c8.508 0 15.406-6.896 15.406-15.406s-6.898-15.406-15.406-15.406h-161.602a15.406 15.406 0 0 0 0 30.812zM483.926 550.006h161.602a15.406 15.406 0 0 0 0-30.812h-161.602c-8.508 0-15.406 6.896-15.406 15.406s6.896 15.406 15.406 15.406z" fill="#FFFFFF" /></svg>