<?xml version="1.0" standalone="no"?><!DOCTYPE svg PUBLIC "-//W3C//DTD SVG 1.1//EN" "http://www.w3.org/Graphics/SVG/1.1/DTD/svg11.dtd"><svg class="icon" width="200px" height="200.00px" viewBox="0 0 1024 1024" version="1.1" xmlns="http://www.w3.org/2000/svg"><path fill="#000000" d="M893.141 121.954c-4.557-2.106-9.564-3.27-14.82-3.27-21.155 0-38.302 18.854-38.302 42.105v86.332c0-4.983-3.653-9.024-8.157-9.024h-231.564l-88.403 51.86-93.847-51.86h-230.391c-4.506 0-8.157 4.042-8.157 9.024v-86.332c0-23.252-17.15-42.105-38.311-42.105-5.252 0-10.255 1.166-14.813 3.269v775.297c4.556 2.105 9.561 3.27 14.813 3.27 21.163 0 38.311-18.855 38.311-42.11v-60.85c0 4.988 3.651 9.033 8.157 9.033h644.204c4.505 0 8.157-4.043 8.157-9.033v67.845c0 23.249 17.148 42.104 38.303 42.104 5.255 0 10.262-1.166 14.82-3.27v-782.284zM840.018 731.535c0-4.985-3.653-9.030-8.157-9.030h-231.564l-88.403 40.166-93.847-40.166h-230.391c-4.506 0-8.157 4.047-8.157 9.030v-183.63c0 4.99 3.651 9.032 8.157 9.032h644.204c4.505 0 8.157-4.042 8.157-9.032v183.63zM840.018 481.881c0-4.989-3.653-9.032-8.157-9.032h-231.564l-88.403 40.167-93.847-40.167h-230.391c-4.506 0-8.157 4.042-8.157 9.032v-157.034c0 4.99 3.651 9.031 8.157 9.031h644.204c4.505 0 8.157-4.041 8.157-9.031v157.034z"  /></svg>