<?xml version="1.0" standalone="no"?><!DOCTYPE svg PUBLIC "-//W3C//DTD SVG 1.1//EN" "http://www.w3.org/Graphics/SVG/1.1/DTD/svg11.dtd"><svg class="icon" width="200px" height="168.14px" viewBox="0 0 1218 1024" version="1.1" xmlns="http://www.w3.org/2000/svg"><path d="M623.426668 514.668311l516.98678 145.690512a48.758538 48.758538 0 0 1 8.045158 90.837156L644.100288 995.622531a48.758538 48.758538 0 0 1-41.639791 0.390068L71.821327 751.634806a48.758538 48.758538 0 0 1 7.801366-91.422259l543.803975-145.544236z" fill="#D7E2FD" /><path d="M820.898747 85.203107c19.308381 10.288052 21.600032 35.593733 0 46.856956l-166.169097 71.480016c-17.991901 8.142676-34.130977 9.702949-55.3897 0L433.122094 132.060063c-19.747208-8.630261-20.478586-35.252423 0-46.856956L599.33995 7.872066c19.01583-9.751708 35.106147-11.214464 55.3897 0l166.169097 77.282283z m25.646992 233.748432c0 13.164805-12.189635 16.382869-28.133677 23.842925l-143.983963 63.678651c-13.798666 5.412198-28.182435-10.67812-28.182435-23.794167v-142.862516c0-13.164805 13.798666-16.480386 28.182435-23.842925l143.983963-63.678651c18.67452-7.801366 28.133676 10.629361 28.133677 23.794166v142.862517z m-438.826843 0c0 13.164805 12.189635 16.382869 28.133676 23.842925l144.032722 63.678651c13.749908 5.412198 28.133676-10.67812 28.133676-23.794167v-142.862516c0-13.164805-13.798666-16.480386-28.133676-23.842925L435.852572 152.294856c-18.67452-7.801366-28.133676 10.629361-28.133676 23.794166v142.862517zM577.106057 447.381528c19.308381 10.33681 21.600032 35.642491 0 46.905714L410.936959 565.669742c-17.991901 8.142676-34.130977 9.751708-55.389699 0l-166.217857-71.431258c-19.747208-8.630261-20.478586-35.301182 0-46.905714L355.54726 370.148004c19.01583-9.702949 35.106147-11.165705 55.389699 0l166.169098 77.282283z m25.646991 233.797191c0 13.164805-12.189635 16.382869-28.133676 23.794166l-143.983963 63.72741c-13.798666 5.363439-28.182435-10.67812-28.182436-23.842926v-142.862516c0-13.164805 13.798666-16.431627 28.182436-23.794167l143.983963-63.727409c18.67452-7.801366 28.133676 10.67812 28.133676 23.842925v142.862517z m-438.826843 0c0 13.164805 12.189635 16.382869 28.133677 23.794166l144.032721 63.72741c13.749908 5.363439 28.133676-10.67812 28.133677-23.842926v-142.862516c0-13.164805-13.798666-16.431627-28.133677-23.794167L192.059882 514.473277c-18.67452-7.801366-28.133676 10.67812-28.133677 23.842925v142.862517zM1064.691438 447.381528c19.308381 10.33681 21.600032 35.642491 0 46.905714L898.52234 565.669742c-17.991901 8.142676-34.130977 9.751708-55.389699 0l-166.217857-71.431258c-19.747208-8.630261-20.478586-35.301182 0-46.905714l166.217857-77.282283c19.01583-9.702949 35.106147-11.165705 55.389699 0l166.169098 77.282283z m25.646991 233.797191c0 13.164805-12.189635 16.382869-28.133676 23.794166l-143.983963 63.72741c-13.798666 5.363439-28.182435-10.67812-28.182436-23.842926v-142.862516c0-13.164805 13.798666-16.431627 28.182436-23.794167l143.983963-63.727409c18.67452-7.801366 28.133676 10.67812 28.133676 23.842925v142.862517z m-438.826843 0c0 13.164805 12.189635 16.382869 28.133677 23.794166l144.032721 63.72741c13.749908 5.363439 28.133676-10.67812 28.133677-23.842926v-142.862516c0-13.164805-13.798666-16.431627-28.133677-23.794167l-144.032721-63.727409c-18.67452-7.801366-28.133676 10.67812-28.133677 23.842925v142.862517z" fill="#2B64E7" /></svg>