<?xml version="1.0" standalone="no"?><!DOCTYPE svg PUBLIC "-//W3C//DTD SVG 1.1//EN" "http://www.w3.org/Graphics/SVG/1.1/DTD/svg11.dtd"><svg class="icon" width="200px" height="141.24px" viewBox="0 0 1450 1024" version="1.1" xmlns="http://www.w3.org/2000/svg"><path d="M722.730345 357.506021v474.54423l377.724573-71.748876V529.107898c0-9.673532 8.433768-17.207698 17.987822-16.08179l46.446166 7.198221c8.208868 0.896791 14.390819 7.870111 14.390819 16.077574v268.529768c0 7.646616-5.287973 14.281181-12.820733 15.856889l-413.479533 88.94814c-20.013332 4.271704-40.591725 4.386965-60.607868 0.109639l-409.098191-86.023028c-7.30786-1.575709-12.705472-7.983967-12.81511-15.407089l-7.088582-272.801471c-0.2249-8.54903 6.298619-15.855484 14.732387-16.532997l347.475459-30.582248c6.06669-0.566468 11.245024-4.388371 13.606479-10.010883l52.397595-127.181221c6.638781-16.301068 31.148717-11.468519 31.148717 6.298619z m0 0" fill="#626264" /><path d="M259.438166 202.1026l-109.078139 233.109348c-5.287973 11.354663 3.821903 24.285035 16.306691 22.939849l409.543775-41.383094c5.732151-0.560846 10.793817-4.271704 13.155272-9.559676L721.160258 110.341798l-450.025861 82.650927c-5.178334 1.010647-9.559676 4.386965-11.696231 9.109875z m0 0" fill="#FF9623" /><path d="M721.160258 110.451437l139.436892 306.206221c2.471094 5.397612 7.531355 8.994614 13.491218 9.444415L1282.846397 458.937543c12.369526 1.009241 21.137834-11.580969 16.080384-22.825993l-106.602828-233.674411c-2.25041-4.836766-6.640187-8.318507-11.919725-9.218108L721.160258 110.451437z m0 0" fill="#1669A8" /></svg>