<?xml version="1.0" standalone="no"?><!DOCTYPE svg PUBLIC "-//W3C//DTD SVG 1.1//EN" "http://www.w3.org/Graphics/SVG/1.1/DTD/svg11.dtd"><svg class="icon" width="200px" height="200.00px" viewBox="0 0 1024 1024" version="1.1" xmlns="http://www.w3.org/2000/svg"><path d="M375.4 184c-12.4-24.5-37.6-39.5-65.1-39.5H152.8c-26.9 0-41.4 20.9-41.4 47.8v254.6H55.5c-33.6 0-55.5 28-55.5 61.6v214.4c15.9-35.1 56.6-56.1 100.4-56.1 63.4 0 112.8 50.7 117 114.3h229.4c4.3-63.7 56.2-114.3 119.7-114.3 22.4 0 43.4 5.1 61.3 15.8L375.4 184z m92.1 358.3H192.4c-6.8 0-17.4-2.4-17.4-9.1V230.9c0-6.7 10.5-6.9 17.4-6.9h119.8c4.6 0 8.8-0.1 10.8 3.9l155.3 299.5c4.2 8.2-1.6 14.9-10.8 14.9z" fill="#1296db" /><path d="M97.7 688.5c-52.8 0-95.5 42.8-95.5 95.5 0 52.8 42.8 95.5 95.5 95.5s95.5-42.8 95.5-95.5-42.7-95.5-95.5-95.5z m0 143.3c-26.4 0-47.8-21.4-47.8-47.8s21.4-47.8 47.8-47.8 47.8 21.4 47.8 47.8-21.4 47.8-47.8 47.8z" fill="#265460" /><path d="M919 727.3V776H685.9c-2.7-40.5-25.6-75.5-58.7-95.1V192.2h48.6v535.1H919z" fill="#1296db" /><path d="M566.4 688.5c-52.8 0-95.5 42.8-95.5 95.5 0 52.8 42.8 95.5 95.5 95.5 52.8 0 95.5-42.8 95.5-95.5s-42.7-95.5-95.5-95.5z m0 143.3c-26.4 0-47.8-21.4-47.8-47.8s21.4-47.8 47.8-47.8 47.8 21.4 47.8 47.8-21.4 47.8-47.8 47.8z" fill="#265460" /><path d="M978.1 325.7h-81.8v84h-69v-84H745c-25.3 0-45.9 20.5-45.9 45.9v286.8c0 25.3 20.5 45.9 45.9 45.9h233.1c25.3 0 45.9-20.5 45.9-45.9V371.5c0-25.3-20.5-45.8-45.9-45.8z" fill="#707070" /></svg>