<?xml version="1.0" standalone="no"?><!DOCTYPE svg PUBLIC "-//W3C//DTD SVG 1.1//EN" "http://www.w3.org/Graphics/SVG/1.1/DTD/svg11.dtd"><svg t="1586400426621" class="icon" viewBox="0 0 1024 1024" version="1.1" xmlns="http://www.w3.org/2000/svg" p-id="41524" xmlns:xlink="http://www.w3.org/1999/xlink" width="16" height="16"><defs><style type="text/css"></style></defs><path d="M1012.736 345.088l-474.112-332.8c-3.584-3.584-8.192-6.656-11.776-8.192-13.312-8.192-33.792-3.584-43.52 11.776L12.8 347.136c-14.848 10.24-16.896 31.744-5.12 48.64s33.792 22.016 47.104 11.776l31.744-23.552v546.304c0 19.968 16.896 36.864 36.864 36.864s36.864-16.896 36.864-36.864V331.776l352.768-247.296 356.352 250.368v593.408c0 19.968 16.896 36.864 36.864 36.864 19.968 0 36.864-16.896 36.864-36.864V389.12l25.088 16.896c14.848 10.24 35.328 5.12 47.104-11.776 12.288-17.408 10.752-38.912-2.56-49.152z m-670.72 504.32H281.6c-23.552 0-28.672 5.12-28.672 28.672v62.464c0 23.552 5.12 28.672 28.672 28.672h60.416c23.552 0 28.672-5.12 28.672-28.672v-62.464c-1.536-23.552-6.656-28.672-28.672-28.672z m0-203.264H281.6c-23.552 0-28.672 5.12-28.672 28.672v60.416c0 23.552 5.12 28.672 28.672 28.672h60.416c23.552 0 28.672-5.12 28.672-28.672v-62.464c-1.536-21.504-6.656-26.624-28.672-26.624z m201.728 203.264H483.328c-23.552 0-28.672 5.12-28.672 28.672v62.464c0 23.552 5.12 28.672 28.672 28.672h60.416c23.552 0 28.672-5.12 28.672-28.672v-62.464c-1.536-23.552-6.656-28.672-28.672-28.672z m201.728 0h-60.416c-23.552 0-28.672 5.12-28.672 28.672v62.464c0 23.552 5.12 28.672 28.672 28.672h60.416c23.552 0 28.672-5.12 28.672-28.672v-62.464c-1.536-23.552-6.656-28.672-28.672-28.672z m-201.728-203.264H483.328c-23.552 0-28.672 5.12-28.672 28.672v60.416c0 23.552 5.12 28.672 28.672 28.672h60.416c23.552 0 28.672-5.12 28.672-28.672v-62.464c-1.536-21.504-6.656-26.624-28.672-26.624zM342.016 442.88H281.6c-23.552 0-28.672 5.12-28.672 28.672v62.464c0 23.552 5.12 28.672 28.672 28.672h60.416c23.552 0 28.672-5.12 28.672-28.672V471.552c-1.536-25.6-6.656-28.672-28.672-28.672z" p-id="41525"></path></svg>