<?xml version="1.0" standalone="no"?><!DOCTYPE svg PUBLIC "-//W3C//DTD SVG 1.1//EN" "http://www.w3.org/Graphics/SVG/1.1/DTD/svg11.dtd"><svg t="1546332641391" class="icon" style="" viewBox="0 0 1024 1024" version="1.1" xmlns="http://www.w3.org/2000/svg" p-id="8358" xmlns:xlink="http://www.w3.org/1999/xlink" width="200" height="200"><defs><style type="text/css"></style></defs><path d="M835.571467 126.453017l-232.484935 351.969237 183.997618 0 0 77.713966-216.071104 0 0 108.040668 216.071104 0 0 78.115102-216.071104 0 0 155.326625L452.951139 897.618615 452.951139 742.290967 230.237755 742.290967l0-78.156034 222.713384 0L452.951139 556.101427 230.237755 556.101427l0-77.722152 187.66003 0L188.428533 126.415155l135.050836 0 160.362314 274.315646c8.905834 15.233959 19.001773 34.712593 30.315446 58.210773l2.367931 0c8.084119-18.890232 18.605753-39.167045 31.497365-60.70764L709.001793 126.381385l126.569674 0L835.571467 126.453017zM835.571467 126.453017" p-id="8359"></path></svg>