<?xml version="1.0" standalone="no"?><!DOCTYPE svg PUBLIC "-//W3C//DTD SVG 1.1//EN" "http://www.w3.org/Graphics/SVG/1.1/DTD/svg11.dtd"><svg t="1587541447979" class="icon" viewBox="0 0 1024 1024" version="1.1" xmlns="http://www.w3.org/2000/svg" p-id="8053" xmlns:xlink="http://www.w3.org/1999/xlink" width="16" height="16"><defs><style type="text/css"></style></defs><path d="M43.885714 320.658286c-16.091429 0-29.257143 13.165714-29.257143 29.257143v323.876571c0 16.091429 13.165714 29.257143 29.257143 29.257143h936.228572c16.091429 0 29.257143-13.165714 29.257143-29.257143V349.915429c0-16.091429-13.165714-29.257143-29.257143-29.257143h-936.228572z m634.002286 300.763428c-30.427429 0-55.296-24.576-55.296-54.710857 0-30.134857 24.868571-54.710857 55.296-54.710857s55.296 24.576 55.296 54.710857c0 30.134857-24.868571 54.710857-55.296 54.710857z m178.176 0c-30.427429 0-55.296-24.576-55.296-54.710857 0-30.134857 24.868571-54.710857 55.296-54.710857s55.296 24.576 55.296 54.710857c0 30.134857-24.868571 54.710857-55.296 54.710857z" p-id="8054"></path></svg>