<?xml version="1.0" standalone="no"?><!DOCTYPE svg PUBLIC "-//W3C//DTD SVG 1.1//EN" "http://www.w3.org/Graphics/SVG/1.1/DTD/svg11.dtd"><svg t="1586398641923" class="icon" viewBox="0 0 1024 1024" version="1.1" xmlns="http://www.w3.org/2000/svg" p-id="35259" xmlns:xlink="http://www.w3.org/1999/xlink" width="16" height="16"><defs><style type="text/css"></style></defs><path d="M581.04972 551.293354c-14.193353 0-26.976051 10.92594-30.39538 25.980153l-0.043405 51.203135c3.631531 14.887829 15.857201 24.858864 30.438785 24.858864 23.597715 0 37.132762-18.755674 37.132763-51.45874 0-11.861553-2.676626-50.583411-37.132763-50.583412zM284.004502 576.082288h42.268991l-21.820531-75.811216z" fill="" p-id="35260"></path><path d="M173.758853 0L84.738126 130.870139l-0.074753 825.362992 0.074753 0.007234v67.757224h719.76165v-0.916323l2.228111 0.207378 132.60874-101.439308V0H173.758853z m189.632934 717.526306l-22.568058-75.087803h-71.075275l-20.834279 75.087803h-86.399563l94.571712-309.410748h99.269071l95.946196 309.410748h-88.909804z m306.230145-26.48413c-19.24036 20.156683-45.150584 31.258653-72.946502 31.258652-23.539842 0-43.262477-7.492142-58.039383-21.875993l-1.507109 17.101471h-70.530305l0.108512-325.041281h82.852431v109.174999c14.711798-11.738573 34.193296-18.027439 56.662487-18.027438 24.861275 0 47.031456 9.090883 64.113636 26.286397 20.880095 21.017544 32.244905 52.775351 32.001357 89.418605 0.002411 37.54993-11.31176 69.281212-32.715124 91.704588z m197.373448 195.06335l-62.495604 47.805507V130.870139H172.637564L212.186524 72.341247h654.808856v813.764279z" fill="" p-id="35261"></path></svg>