<?xml version="1.0" standalone="no"?><!DOCTYPE svg PUBLIC "-//W3C//DTD SVG 1.1//EN" "http://www.w3.org/Graphics/SVG/1.1/DTD/svg11.dtd"><svg t="1587541495077" class="icon" viewBox="0 0 1024 1024" version="1.1" xmlns="http://www.w3.org/2000/svg" p-id="9015" xmlns:xlink="http://www.w3.org/1999/xlink" width="16" height="16"><defs><style type="text/css"></style></defs><path d="M496.197818 479.464727c176.64 92.625455 291.467636 154.251636 344.482909 184.855273a1602.56 1602.56 0 0 1 143.522909 93.998545c17.617455 12.869818 22.714182 36.957091 11.799273 55.854546l-17.105454 29.649454a42.728727 42.728727 0 0 1-54.341819 17.687273 1627.322182 1627.322182 0 0 1-153.111272-77.265454c-52.084364-30.068364-162.839273-98.722909-332.311273-205.940364l-65.582546 113.570909a85.457455 85.457455 0 0 1-116.736 31.278546l-162.90909-94.045091a85.457455 85.457455 0 0 1-31.278546-116.736l221.556364-383.767273a85.457455 85.457455 0 0 1 116.736-31.278546l162.909091 94.068364a85.457455 85.457455 0 0 1 31.278545 116.736l-98.909091 171.333818z m-31.930182-194.001454a26.298182 26.298182 0 0 0-35.933091 9.611636l-81.152 140.567273a26.298182 26.298182 0 0 0 45.568 26.298182l81.128728-140.567273a26.298182 26.298182 0 0 0-9.611637-35.909818z m-134.935272 202.961454c-13.893818 0-25.181091 11.287273-25.181091 25.181091v1.326546a25.181091 25.181091 0 1 0 50.362182 0v-1.326546c0-13.893818-11.264-25.181091-25.181091-25.181091zM77.568 819.479273H367.243636a50.106182 50.106182 0 0 1 0 100.212363H77.568a50.106182 50.106182 0 0 1 0-100.212363z" fill="#666666" p-id="9016"></path></svg>