<?xml version="1.0" standalone="no"?><!DOCTYPE svg PUBLIC "-//W3C//DTD SVG 1.1//EN" "http://www.w3.org/Graphics/SVG/1.1/DTD/svg11.dtd"><svg t="1586397708428" class="icon" viewBox="0 0 1024 1024" version="1.1" xmlns="http://www.w3.org/2000/svg" p-id="21972" xmlns:xlink="http://www.w3.org/1999/xlink" width="16" height="16"><defs><style type="text/css"></style></defs><path d="M454.702848 537.080832l-7.972063-4.494538L97.059046 334.679012l-4.609361-2.575337c-3.11665-1.361484-6.561369-2.148848-10.235735-2.148848-14.106943 0-25.589338 11.449588-25.589338 25.589338l0 408.920898c0 20.865152 11.088713 39.154967 27.688976 49.226668l0.393682 0.246051 356.315125 206.338641 0-0.032807c3.904014 2.345689 8.447762 3.756384 13.319578 3.756384 14.106943 0 25.589338-11.498799 25.589338-25.638548L479.931311 584.732772C479.931311 564.966649 469.941627 547.464198 454.702848 537.080832z" p-id="21973"></path><path d="M954.416685 329.954827c-3.64156 0-7.086278 0.787364-10.202928 2.148848l-4.592958 2.575337L590.014673 532.537084l-7.890046 4.445327c-0.032807 0-0.082017 0.098421-0.114824 0.098421-15.287989 10.383366-25.277673 27.885817-25.277673 47.65194l0 413.62868c0 14.123346 11.433185 25.638548 25.638548 25.638548 4.428924 0 8.546183-1.181046 12.171339-3.133054 0.393682-0.164034 0.705347-0.377279 1.049819-0.606927l356.282318-206.223817 0.508506-0.328068c16.567456-10.071701 27.672572-28.361516 27.672572-49.226668L980.055233 355.544164C980.03883 341.404415 968.540031 329.954827 954.416685 329.954827z" p-id="21974"></path><path d="M905.747733 265.604203c6.594176-4.609361 10.957486-12.269759 10.957486-20.979976 0-8.546183-4.215679-16.140967-10.59661-20.750328l-4.297696-2.49332L551.663474 17.272803l-9.071092-5.232692c-7.38154-3.477525-15.599654-5.396726-24.293467-5.396726-8.67741 0-16.911928 1.9192-24.293467 5.396726L484.934354 17.272803 134.721302 221.446192l-3.986031 2.263672C124.239516 228.335629 119.958223 235.996027 119.958223 244.624227s4.297696 16.255791 10.777048 20.897959l4.527344 2.49332 351.771377 199.104732 5.905232 3.362701c7.660398 3.756384 16.288598 5.856022 25.343286 5.856022 9.25153 0 17.961747-2.148848 25.704162-6.020056l5.150674-2.936212 352.427514-199.465607L905.747733 265.604203z" p-id="21975"></path></svg>