<?xml version="1.0" standalone="no"?><!DOCTYPE svg PUBLIC "-//W3C//DTD SVG 1.1//EN" "http://www.w3.org/Graphics/SVG/1.1/DTD/svg11.dtd"><svg t="1586400338907" class="icon" viewBox="0 0 1024 1024" version="1.1" xmlns="http://www.w3.org/2000/svg" p-id="38858" xmlns:xlink="http://www.w3.org/1999/xlink" width="16" height="16"><defs><style type="text/css"></style></defs><path d="M234.035553 1023.374604H24.869155A26.039198 26.039198 0 0 1 0.023893 996.255177V243.222031h3.354395L453.89053 17.909056a102.33746 102.33746 0 0 1 115.641331 0l450.455388 225.142413H1023.398498v753.260563a26.096052 26.096052 0 0 1-24.845261 26.89201h-209.223253v-0.397979l0.341125-0.454833a141.396258 141.396258 0 0 0 10.915996-69.13464v-257.492421a140.941425 140.941425 0 0 0-10.915996-69.13464 78.174449 78.174449 0 0 0-31.326634-34.112487 111.206707 111.206707 0 0 0-63.619788-12.053079H328.356579a112.741769 112.741769 0 0 0-63.676642 11.996225 78.401866 78.401866 0 0 0-31.26978 34.112486 140.941425 140.941425 0 0 0-10.97285 69.191495v257.492421a140.202321 140.202321 0 0 0 10.97285 69.077786l0.568542 1.080228zM385.665557 331.630226a34.112487 34.112487 0 0 0 0 68.224974h252.034423a34.112487 34.112487 0 0 0 0-68.224974z m362.160901 601.573705H275.595933V847.126756h472.230525v86.134029z m0-172.495475H275.595933v-86.304592h472.230525v86.190884z" p-id="38859"></path></svg>