<?xml version="1.0" standalone="no"?><!DOCTYPE svg PUBLIC "-//W3C//DTD SVG 1.1//EN" "http://www.w3.org/Graphics/SVG/1.1/DTD/svg11.dtd"><svg t="1586397803051" class="icon" viewBox="0 0 1024 1024" version="1.1" xmlns="http://www.w3.org/2000/svg" p-id="23355" xmlns:xlink="http://www.w3.org/1999/xlink" width="16" height="16"><defs><style type="text/css"></style></defs><path d="M737.573 414.135c-23.991 45.422-54.419 81.408-67.219 91.209-26.331 20.187-45.714 30.72-74.825 30.72-27.94 0-54.418-10.24-78.994-30.72-18.652-15.58-49.298-50.176-71.9-93.184-19.529-4.535-37.449-37.303-37.449-65.097 0-11.996 3.365-21.212 8.777-27.94a167.205 167.205 0 0 1-0.438-11.557c0-37.523-11.703-65.097-4.901-98.158 15.799-78.117 72.85-143.872 184.905-135.534 27.648 2.048 48.42 10.68 62.391 25.82 35.62 2.633 61.806 11.922 78.629 27.867 26.477 25.015 44.982 55.077 44.982 95.378 0 25.893-7.314 62.83-10.825 87.333 10.972 7.607 17.408 22.309 13.532 42.57-5.705 29.622-25.893 59.976-46.665 61.293zM221.623 643.29H102.4v31.452h96.549c-55.296 87.186-80.896 209.042-80.896 343.625H0V471.845c0-18.798 19.163-37.669 38.327-37.669H338.87c19.163 0 38.327 12.58 38.327 31.451v80.165c-64.585 14.043-116.078 48.42-155.648 97.5zM102.4 547.328v31.451h178.98v-31.451H102.4z m488.521 19.749l46.08 36.571-45.934 203.63-45.933-203.557 45.787-36.718z m115.054 6.07c281.82 0 313.417 320.366 318.098 441.856-192.512-0.365-336.969-0.365-433.225 0-96.256 0.366-240.64 1.463-433.225 3.365 2.194-29.038 6.802-68.681 13.604-118.857 17.262-127.342 84.992-326.364 301.495-326.364 1.024 0 41.984 125.075 122.953 375.296 72.192-250.148 108.983-375.222 110.3-375.222z" p-id="23356"></path></svg>