<?xml version="1.0" standalone="no"?><!DOCTYPE svg PUBLIC "-//W3C//DTD SVG 1.1//EN" "http://www.w3.org/Graphics/SVG/1.1/DTD/svg11.dtd"><svg t="1586398543632" class="icon" viewBox="0 0 1033 1024" version="1.1" xmlns="http://www.w3.org/2000/svg" p-id="34509" xmlns:xlink="http://www.w3.org/1999/xlink" width="16.140625" height="16"><defs><style type="text/css"></style></defs><path d="M455.064001 534.856425L50.584436 342.490632a73.142921 73.142921 0 0 1 0-136.410853l404.479565-192.365794a146.285843 146.285843 0 0 1 123.245868 0l404.479565 192.365794a73.142921 73.142921 0 0 1 0 136.410853l-404.479565 192.365793a146.285843 146.285843 0 0 1-123.245868 0z" p-id="34510"></path><path d="M516.686935 792.136149a191.816794 191.816794 0 0 1-84.845909-19.748979l-396.799574-197.119788a54.856941 54.856941 0 1 1 48.639948-97.827895L480.114974 674.559275a83.74891 83.74891 0 0 0 73.142922 0l396.799573-197.119788a54.856941 54.856941 0 1 1 48.639948 97.827895l-397.165573 197.119788a191.268795 191.268795 0 0 1-84.844909 19.748979z" p-id="34511"></path><path d="M516.686935 1023.9989a191.268795 191.268795 0 0 1-84.845909-19.748979l-396.799574-197.119788a54.856941 54.856941 0 1 1 48.639948-97.827895l396.433574 197.119788a82.468911 82.468911 0 0 0 73.142922 0l396.799573-197.119788a54.856941 54.856941 0 1 1 48.639948 97.827895l-397.165573 197.119788A191.268795 191.268795 0 0 1 516.686935 1023.9989z" p-id="34512"></path></svg>